<?xml version="1.0" encoding="UTF-8"?>
<svg width="24px" height="24px" viewBox="0 0 24 24" version="1.1" xmlns="http://www.w3.org/2000/svg">
    <g stroke="none" stroke-width="1" fill="none" fill-rule="evenodd">
        <path d="M23.64,12.2045455 C23.64,11.2909091 23.5727273,10.4090909 23.4454545,9.56818182 L12,9.56818182 L12,14.3181818 L18.8436364,14.3181818 C18.6354545,15.5727273 17.8472727,16.5909091 16.6618182,17.2363636 L16.6618182,19.9090909 L19.9636364,19.9090909 C22.1881818,17.9090909 23.64,15.2727273 23.64,12.2045455 L23.64,12.2045455 Z" fill="#4285F4" fill-rule="nonzero"></path>
        <path d="M12,24 C15.24,24 17.9527273,22.8272727 19.9636364,20.5909091 L16.6618182,17.2363636 C15.5727273,17.9363636 14.1818182,18.3181818 12,18.3181818 C8.91363636,18.3181818 6.32727273,16.2545455 5.36363636,13.4727273 L2.05454545,13.4727273 L2.05454545,16.2545455 C4.09090909,20.3181818 7.72727273,24 12,24 L12,24 Z" fill="#34A853" fill-rule="nonzero"></path>
        <path d="M5.36363636,13.4727273 C5.18181818,12.9090909 5.09090909,12.3181818 5.09090909,11.7272727 C5.09090909,11.1363636 5.18181818,10.5454545 5.36363636,9.98181818 L5.36363636,7.2 L2.05454545,7.2 C1.38181818,8.59090909 1,10.1363636 1,11.7272727 C1,13.3181818 1.38181818,14.8636364 2.05454545,16.2545455 L5.36363636,13.4727273 L5.36363636,13.4727273 Z" fill="#FBBC05" fill-rule="nonzero"></path>
        <path d="M12,5.13636364 C13.5727273,5.13636364 14.9636364,5.68181818 16.0363636,6.77272727 L20.0909091,2.71818182 C17.9527273,0.736363636 15.24,0 12,0 C7.72727273,0 4.09090909,3.68181818 2.05454545,7.2 L5.36363636,9.98181818 C6.32727273,7.2 8.91363636,5.13636364 12,5.13636364 L12,5.13636364 Z" fill="#EA4335" fill-rule="nonzero"></path>
    </g>
</svg> 